<?xml version="1.0" standalone="no"?>
<!DOCTYPE svg PUBLIC "-//W3C//DTD SVG 20010904//EN"
 "http://www.w3.org/TR/2001/REC-SVG-20010904/DTD/svg10.dtd">
<svg version="1.0" xmlns="http://www.w3.org/2000/svg"
 width="480.000000pt" height="480.000000pt" viewBox="0 0 480.000000 480.000000"
 preserveAspectRatio="xMidYMid meet">
<metadata>
Created by potrace 1.11, written by Peter Selinger 2001-2013
</metadata>
<g transform="translate(0.000000,480.000000) scale(0.100000,-0.100000)"
fill="#000000" stroke="none">
<path d="M2347 4410 c-37 -32 -86 -42 -111 -21 -21 18 -89 16 -118 -3 -21 -13
-26 -13 -56 1 -30 15 -36 14 -71 -2 -21 -9 -58 -36 -81 -60 l-42 -43 -46 29
c-52 33 -109 37 -197 16 -88 -22 -114 -48 -129 -129 l-7 -37 -55 26 c-72 33
-139 26 -183 -19 -25 -26 -71 -139 -71 -176 0 -7 -17 -11 -49 -11 -61 2 -124
-31 -145 -75 -8 -17 -28 -41 -45 -54 -17 -12 -31 -29 -31 -37 0 -9 -10 -15
-22 -15 -74 -1 -112 -112 -69 -201 l19 -40 -24 -24 c-42 -42 -34 -89 30 -176
31 -41 52 -79 48 -86 -4 -6 -23 -22 -42 -35 -39 -27 -56 -63 -46 -102 4 -15
48 -66 102 -119 80 -77 102 -105 135 -173 21 -44 39 -85 39 -92 0 -23 20 -21
73 5 l54 27 -5 171 -5 170 28 33 c54 65 236 146 505 225 369 109 652 154 820
129 147 -21 200 -68 275 -245 27 -62 76 -157 110 -212 35 -55 86 -142 115
-193 l53 -93 -6 -132 c-6 -153 -16 -189 -89 -330 -81 -155 -142 -207 -359
-301 -61 -26 -78 -58 -99 -186 -15 -89 -23 -114 -56 -161 -40 -58 -90 -80
-175 -77 l-72 3 52 33 c28 18 51 37 51 42 0 15 -18 21 -26 9 -5 -8 -3 -9 6 -4
9 5 11 4 6 -4 -4 -6 -11 -9 -16 -6 -5 3 -38 -9 -72 -26 -53 -28 -77 -33 -152
-37 -148 -8 -243 23 -328 106 -76 74 -58 28 30 -75 42 -49 80 -72 152 -90 l34
-9 -35 -22 c-88 -54 -167 -15 -271 135 -65 93 -77 100 -187 105 -84 4 -95 7
-112 29 -20 26 -82 139 -77 140 7 2 37 8 103 23 181 40 259 95 327 231 47 94
77 226 76 340 -1 36 4 61 11 63 6 2 11 10 11 17 0 20 79 40 102 26 11 -7 18
-7 18 -2 0 16 -24 65 -35 74 -14 11 -82 -1 -111 -19 -23 -16 -24 -20 -24 -134
0 -302 -83 -456 -286 -529 -49 -18 -77 -22 -148 -19 l-87 3 6 -65 c15 -154 60
-235 215 -390 140 -140 281 -241 425 -303 60 -26 85 -31 177 -35 93 -4 119 -1
198 22 51 14 116 37 146 51 30 14 57 25 60 25 15 0 210 103 264 140 100 68
193 163 275 283 94 135 129 198 151 275 34 117 75 209 97 220 18 8 15 9 -17 5
l-39 -6 5 114 c3 63 2 152 -2 199 -23 251 -23 247 -3 224 17 -19 22 -20 37 -8
17 12 17 19 7 77 -6 35 -12 138 -13 228 l-1 164 45 75 c96 157 91 253 -16 305
l-52 25 9 78 c4 42 6 97 3 121 -10 78 -69 155 -131 171 -16 5 -21 17 -26 61
-11 101 -39 121 -138 101 -30 -7 -58 -8 -61 -4 -4 4 -13 26 -20 50 -18 56 -77
123 -125 140 -47 18 -92 9 -142 -27 l-40 -29 -13 56 c-17 77 -53 112 -114 112
-36 0 -52 -6 -79 -30z"/>
<path d="M2257 3114 c-69 -16 -197 -74 -216 -97 -7 -9 -11 -23 -8 -31 5 -12
25 -5 99 32 89 46 243 92 305 92 22 0 25 2 13 10 -21 14 -125 11 -193 -6z"/>
<path d="M2342 2924 c-87 -15 -173 -46 -194 -71 -10 -12 -5 -12 27 2 88 37
142 49 235 49 175 0 238 -37 336 -200 20 -33 5 65 -18 118 -27 65 -66 87 -181
104 -106 16 -97 16 -205 -2z"/>
<path d="M1433 2890 c-48 -10 -114 -42 -132 -64 -16 -19 -6 -20 35 -6 16 6 83
11 149 13 106 2 120 4 123 20 7 33 -17 47 -77 46 -31 -1 -75 -5 -98 -9z"/>
<path d="M2882 2730 c0 -14 2 -19 5 -12 2 6 2 18 0 25 -3 6 -5 1 -5 -13z"/>
<path d="M2432 2720 c-124 -26 -243 -116 -241 -182 l1 -33 10 30 c12 33 90
116 94 100 1 -6 5 -31 9 -58 4 -27 16 -58 28 -72 l22 -25 65 15 c81 19 113 31
171 67 45 27 46 29 39 66 -4 20 -11 45 -15 55 -9 21 9 23 45 4 41 -21 60 -27
60 -18 0 5 -21 19 -47 31 -54 25 -171 35 -241 20z m-10 -55 c10 -22 9 -29 -9
-46 -17 -17 -24 -19 -42 -10 -28 16 -28 55 2 69 32 16 36 15 49 -13z"/>
<path d="M1460 2675 c-24 -14 -24 -14 20 -15 28 0 68 -11 108 -30 34 -16 62
-27 62 -25 0 19 -29 59 -51 71 -36 18 -107 18 -139 -1z"/>
<path d="M3276 2628 c-8 -13 -17 -39 -20 -58 -7 -38 -9 -40 42 37 26 40 27 43
7 43 -8 0 -21 -10 -29 -22z"/>
<path d="M2815 2453 c-36 -58 -60 -85 -121 -133 -11 -8 -42 -25 -69 -37 -220
-97 -444 -48 -559 122 -14 21 -26 33 -26 28 0 -18 56 -88 104 -130 55 -49 180
-102 259 -110 62 -6 173 25 278 78 71 35 152 124 169 184 19 69 8 68 -35 -2z"/>
<path d="M1465 2466 c-27 -7 -64 -20 -81 -29 -41 -21 -84 -73 -84 -100 1 -22
1 -22 12 -2 17 32 61 76 90 91 32 17 52 18 43 4 -12 -20 -7 -98 9 -129 13 -24
23 -31 47 -31 32 0 124 24 147 39 14 8 39 137 29 147 -9 10 -87 23 -127 23
-19 -1 -57 -6 -85 -13z m79 -12 c22 -9 20 -51 -3 -64 -25 -13 -48 -4 -56 21
-11 35 20 58 59 43z"/>
<path d="M1810 2260 c-6 -11 -8 -20 -6 -20 3 0 10 9 16 20 6 11 8 20 6 20 -3
0 -10 -9 -16 -20z"/>
<path d="M1785 2208 c-17 -53 6 -158 35 -158 6 0 10 -4 10 -8 0 -5 -24 -14
-52 -21 -120 -27 -253 -129 -246 -189 3 -26 5 -27 69 -27 63 0 67 -2 115 -44
69 -62 119 -83 175 -73 24 5 43 13 42 20 -5 22 50 51 137 72 93 21 145 38 122
39 -14 1 -128 -25 -285 -65 -108 -27 -118 -25 -135 26 -8 22 -7 32 3 40 24 20
216 75 345 99 36 7 85 17 110 21 39 8 76 14 228 34 12 2 22 -2 23 -8 1 -6 4 0
8 14 4 16 15 26 31 28 33 5 60 30 60 57 0 81 -220 101 -454 40 -26 -7 -27 -6
-17 13 11 22 15 62 5 62 -3 0 -22 -14 -43 -31 -45 -35 -116 -59 -178 -59 -36
0 -50 6 -75 30 -27 27 -30 36 -25 70 6 44 2 52 -8 18z m460 -235 c-11 -2 -45
-10 -75 -18 -89 -23 -241 -47 -258 -40 -12 4 -9 9 14 22 52 27 116 38 229 39
61 0 101 -2 90 -3z"/>
<path d="M2385 1863 c-76 -16 -73 -13 -36 -29 33 -14 36 -13 60 11 26 25 22
28 -24 18z"/>
<path d="M2235 1830 c-13 -6 -5 -7 25 -3 25 3 47 7 49 9 9 8 -55 2 -74 -6z"/>
</g>
</svg>
