<?xml version="1.0" standalone="no"?>
<!DOCTYPE svg PUBLIC "-//W3C//DTD SVG 20010904//EN"
 "http://www.w3.org/TR/2001/REC-SVG-20010904/DTD/svg10.dtd">
<svg version="1.0" xmlns="http://www.w3.org/2000/svg"
 width="2048.000000pt" height="2048.000000pt" viewBox="0 0 2048.000000 2048.000000"
 preserveAspectRatio="xMidYMid meet">
<metadata>
Created by potrace 1.11, written by Peter Selinger 2001-2013
</metadata>
<g transform="translate(0.000000,2048.000000) scale(0.100000,-0.100000)"
fill="#000000" stroke="none">
<path d="M8208 19357 c-144 -41 -190 -150 -157 -370 30 -204 92 -372 158 -431
23 -21 64 -144 106 -318 19 -77 25 -128 23 -180 l-3 -73 -54 100 c-30 55 -65
115 -79 133 -74 101 -192 95 -292 -14 -25 -27 -49 -48 -55 -46 -5 2 -63 17
-130 33 -66 17 -130 37 -143 45 -12 8 -44 43 -70 77 -112 146 -165 187 -244
187 -62 0 -128 -36 -155 -85 -19 -33 -23 -56 -23 -131 0 -104 17 -170 59 -234
27 -41 30 -56 41 -185 11 -138 42 -306 82 -435 23 -73 53 -136 106 -224 l36
-58 -19 -36 c-35 -65 -53 -56 -169 82 -57 68 -119 101 -169 91 -18 -4 -58 -22
-90 -42 -74 -44 -89 -41 -178 43 -38 36 -85 72 -104 80 -72 30 -178 12 -219
-37 -30 -36 -32 -61 -10 -174 9 -44 18 -92 21 -107 l5 -26 -72 -1 c-99 -1
-140 -14 -216 -71 -97 -74 -106 -77 -240 -82 -108 -4 -125 -7 -166 -31 -89
-52 -132 -133 -109 -204 7 -21 14 -42 17 -48 2 -6 -23 -10 -64 -11 -71 -1
-112 -16 -149 -56 -33 -35 -44 -74 -50 -174 -5 -80 -3 -97 15 -136 32 -65 89
-114 178 -153 l79 -35 -65 0 c-76 -1 -122 -16 -174 -55 -21 -16 -92 -56 -159
-89 -157 -79 -177 -103 -202 -242 -22 -122 -50 -200 -79 -219 -12 -8 -51 -21
-86 -28 -118 -25 -170 -70 -190 -164 -11 -52 -2 -140 21 -201 36 -97 120 -152
228 -152 125 0 136 -5 220 -93 99 -103 151 -137 295 -194 140 -54 184 -91 237
-198 29 -60 33 -78 34 -149 l0 -81 -33 -3 c-50 -5 -134 40 -213 115 -73 70
-118 135 -193 281 -55 105 -120 184 -179 214 -72 36 -178 8 -223 -60 -15 -21
-20 -52 -24 -144 -3 -70 -10 -122 -17 -129 -14 -14 -45 -4 -217 72 -233 102
-355 73 -436 -103 -45 -98 -53 -204 -20 -272 28 -58 104 -125 194 -171 58 -29
91 -38 183 -49 61 -8 117 -18 125 -22 83 -50 232 -174 277 -231 70 -88 149
-155 258 -220 49 -29 94 -56 102 -60 11 -7 8 -25 -14 -96 -24 -75 -27 -100
-22 -165 6 -88 15 -112 74 -201 24 -35 44 -75 44 -90 6 -115 -16 -197 -77
-286 -26 -38 -65 -100 -87 -139 -51 -91 -100 -152 -140 -173 -23 -12 -73 -18
-182 -23 -160 -7 -192 -16 -247 -68 -37 -34 -43 -75 -23 -152 21 -82 46 -131
90 -175 83 -82 152 -89 319 -31 122 43 238 57 298 37 20 -7 61 -34 92 -61 58
-50 73 -57 136 -62 30 -3 38 -9 55 -43 20 -39 20 -60 20 -835 l0 -795 -48 4
c-165 12 -405 -263 -478 -547 -31 -123 -42 -260 -36 -467 5 -157 10 -209 32
-300 14 -60 33 -139 40 -175 20 -88 19 -383 0 -531 -9 -63 -15 -166 -16 -230
0 -101 4 -128 27 -200 34 -102 87 -183 182 -277 l74 -74 -56 -176 c-70 -218
-74 -232 -39 -157 15 33 45 94 65 135 38 75 38 75 32 30 -4 -25 -8 -138 -10
-252 -2 -173 -6 -220 -24 -284 -22 -83 -21 -112 2 -42 15 42 15 41 22 -107 8
-174 31 -423 39 -431 3 -3 8 53 12 125 4 72 11 131 14 131 4 0 16 -26 26 -57
18 -56 19 -57 25 -28 4 17 14 43 22 60 l16 30 6 -45 c9 -75 26 -382 26 -481 0
-52 4 -99 8 -106 4 -7 20 79 36 190 36 256 44 287 46 187 2 -57 4 -68 10 -45
4 17 8 22 9 13 3 -38 140 -493 147 -486 2 3 -3 38 -10 79 -21 110 -49 365 -48
439 1 36 4 97 8 135 l7 70 18 -85 c11 -50 19 -134 20 -205 1 -116 15 -273 18
-209 0 19 8 34 17 38 9 4 18 5 19 4 2 -2 13 -52 25 -113 13 -60 27 -116 33
-122 9 -12 2 -213 -9 -258 -4 -16 -3 -17 5 -5 6 8 11 34 11 57 0 60 20 65 22
6 1 -45 2 -44 8 17 l7 65 1 -54 c4 -104 12 -43 27 185 8 126 16 240 16 254 3
42 17 -100 19 -200 2 -52 5 -84 8 -70 8 44 38 -130 72 -420 17 -151 34 -277
36 -279 2 -2 4 70 4 160 l1 164 39 -75 c35 -65 39 -79 31 -107 -5 -18 -6 -31
-1 -28 4 3 11 21 14 40 4 22 11 33 18 29 7 -5 9 -35 5 -88 -3 -46 -1 -70 3
-56 4 14 9 41 10 60 l2 35 12 -35 c8 -23 10 -47 5 -70 -12 -51 -9 -60 6 -20
l13 35 7 -28 c4 -15 12 -31 19 -35 6 -4 24 -34 40 -67 28 -56 31 -76 48 -285
24 -301 34 -853 19 -1030 -21 -235 -82 -522 -185 -879 -109 -373 -110 -452 -8
-541 64 -56 158 -99 352 -160 409 -128 543 -176 805 -285 350 -146 543 -202
965 -279 322 -59 673 -61 1005 -7 105 17 307 50 450 72 326 51 462 79 617 129
113 37 142 42 353 60 510 45 611 80 1075 368 401 250 729 621 813 921 20 74
21 100 26 926 l6 850 106 145 c59 80 154 217 212 305 59 88 131 196 162 240
171 242 312 530 424 862 46 136 51 160 51 239 l0 88 33 -32 c69 -67 190 -87
319 -53 145 38 227 98 288 212 65 123 91 334 54 442 l-16 47 41 49 c22 26 54
77 70 111 17 35 34 66 39 69 11 7 94 248 116 336 8 33 22 114 31 180 25 187
43 262 91 378 75 183 98 282 98 427 0 275 -103 647 -246 894 -52 89 -166 204
-238 241 -62 32 -166 44 -236 27 -40 -9 -41 -9 -36 17 3 14 17 39 33 54 33 33
40 54 73 207 44 203 56 272 81 435 48 317 57 368 76 424 11 31 26 103 34 161
33 234 31 232 245 285 83 21 182 53 221 71 83 40 162 112 218 198 50 76 136
266 156 343 18 68 19 172 4 243 -20 94 -109 182 -221 219 -48 16 -390 80 -430
81 -5 0 -8 4 -8 8 0 5 40 14 90 20 108 13 163 36 226 94 62 56 85 111 91 212
9 135 -21 174 -157 206 -65 16 -51 25 56 35 140 13 211 27 318 61 149 48 237
53 379 24 65 -13 127 -20 153 -17 98 11 168 102 169 219 0 63 -2 69 -35 103
-45 47 -109 65 -228 65 -86 0 -94 2 -87 18 13 35 25 116 25 177 0 142 -51 220
-206 311 -50 29 -108 71 -128 91 -36 37 -36 38 -14 45 13 3 96 6 185 7 194 1
238 14 325 91 72 64 143 194 134 244 -12 63 -72 97 -200 115 -43 6 -85 15 -94
20 -9 5 -42 47 -72 93 -59 89 -87 112 -215 178 -88 44 -128 50 -247 36 -83
-11 -163 7 -153 33 4 9 13 95 22 190 8 96 19 185 24 197 13 36 46 51 157 73
134 27 194 53 241 107 88 100 96 284 16 359 -65 62 -262 118 -549 155 -101 14
-192 7 -251 -19 -41 -18 -67 -44 -148 -150 -40 -52 -60 -68 -115 -93 -125 -55
-170 -80 -243 -135 -150 -113 -268 -154 -384 -134 -77 14 -159 51 -175 80 -34
64 38 212 118 244 20 8 73 18 117 22 129 12 190 36 266 103 92 81 119 96 244
133 204 59 292 109 320 182 16 43 16 46 -9 119 -15 42 -24 83 -20 91 3 9 40
30 82 48 99 41 138 66 190 123 57 61 82 118 82 184 0 70 -22 116 -67 137 -29
14 -51 16 -117 10 -45 -3 -103 -11 -131 -17 -27 -5 -142 -13 -255 -17 -234 -9
-250 -13 -370 -96 -121 -84 -107 -80 -295 -80 -106 -1 -180 -5 -197 -12 -17
-8 11 26 75 92 58 58 113 106 127 109 14 3 102 7 195 9 194 4 254 20 318 82
47 46 60 91 43 156 -26 98 -116 154 -266 166 l-78 6 10 36 c6 19 8 74 6 121
-5 106 -31 159 -98 198 -36 22 -57 27 -110 27 -138 -1 -218 -48 -309 -185 -61
-91 -120 -144 -179 -159 -35 -9 -195 -2 -205 9 -3 3 -10 41 -16 85 -17 118
-29 153 -66 193 l-33 37 -114 6 c-63 3 -124 11 -136 18 -14 7 -28 33 -41 76
-39 125 -63 152 -199 216 l-103 48 20 38 c26 51 59 79 102 87 20 4 55 20 78
36 64 46 81 90 107 265 9 57 -16 112 -57 129 -69 29 -121 -22 -112 -108 5 -37
0 -47 -43 -105 -27 -35 -54 -70 -59 -76 -6 -7 -36 -20 -68 -29 -36 -10 -73
-30 -95 -51 l-37 -33 -6 -144 c-5 -102 -11 -155 -24 -185 l-17 -42 -39 57
c-84 126 -140 172 -210 172 -19 0 -63 -17 -108 -42 l-76 -41 -130 11 c-127 10
-211 5 -265 -16 -14 -5 -59 -37 -100 -71 -57 -47 -82 -61 -107 -61 -20 0 -33
5 -33 13 0 7 21 46 46 87 80 128 96 173 97 259 1 143 -48 239 -149 291 -41 21
-63 25 -134 25 -74 0 -93 -4 -150 -31 -36 -17 -91 -52 -124 -78 l-58 -48 7 44
c3 23 9 52 12 63 3 13 2 16 -4 10 -6 -5 -20 -43 -33 -84 -18 -57 -35 -87 -77
-135 -29 -33 -65 -85 -81 -114 -25 -49 -31 -54 -82 -68 -117 -32 -149 -53
-182 -117 -27 -53 -34 -77 -63 -222 -14 -66 -29 -137 -35 -157 l-11 -37 -45
19 c-66 29 -123 25 -205 -11 -66 -29 -73 -30 -125 -19 -30 6 -65 21 -79 33
-13 13 -43 71 -68 137 -25 63 -72 171 -106 239 -71 144 -73 162 -41 356 34
203 25 303 -34 380 -21 27 -29 55 -41 142 -27 189 -58 262 -127 296 -29 14
-44 16 -79 8 -85 -19 -116 -57 -183 -228 -25 -65 -50 -125 -56 -133 -11 -17
-12 -15 -30 75 -27 131 -63 178 -147 189 -56 7 -74 23 -166 148 -69 94 -122
128 -204 134 -32 2 -79 -2 -105 -9z m90 -889 c18 -31 40 -100 28 -87 -8 8 -56
119 -52 119 3 0 13 -15 24 -32z m5147 -1746 c-35 -31 -190 -146 -238 -176 -57
-36 -136 -70 -144 -62 -6 6 35 85 71 134 40 58 66 70 174 82 50 5 101 14 114
19 30 12 34 13 23 3z m-2515 -886 c52 -15 160 -53 240 -85 80 -32 213 -84 295
-116 203 -77 454 -200 562 -273 48 -34 147 -110 218 -169 72 -60 170 -139 218
-177 48 -37 128 -105 177 -151 50 -46 134 -120 187 -163 88 -71 332 -328 496
-522 73 -87 270 -392 312 -483 18 -40 49 -122 68 -183 l35 -109 6 -330 c6
-317 5 -329 -11 -305 -37 52 -173 198 -239 256 -103 91 -322 265 -389 311 -63
42 -356 226 -437 274 -27 16 -114 63 -195 105 -82 42 -220 117 -308 165 -214
119 -349 173 -815 327 -587 194 -1031 299 -1400 332 -149 13 -626 13 -805 0
-186 -14 -470 -53 -735 -100 -323 -58 -734 -148 -821 -180 -42 -15 -117 -33
-165 -40 -78 -10 -145 -28 -206 -55 -12 -4 -18 -3 -18 5 0 29 92 464 114 540
49 169 54 179 136 243 124 96 694 471 770 506 75 35 674 204 870 245 147 31
640 121 745 136 157 22 315 28 655 25 340 -2 346 -2 440 -29z m4021 -2010 c41
-15 205 -124 238 -160 l23 -24 -39 9 c-21 5 -83 9 -139 9 -88 0 -105 3 -135
23 -29 20 -99 117 -99 138 0 19 103 23 151 5z m-6681 -981 c334 -24 492 -70
645 -190 79 -61 112 -79 118 -62 4 7 6 6 6 -4 1 -21 263 -194 341 -226 73 -30
89 -29 171 12 92 47 171 66 261 64 40 -1 150 2 243 6 207 9 233 4 471 -91 158
-64 174 -68 249 -68 101 -1 151 22 285 130 102 83 233 153 335 179 85 22 325
29 570 16 116 -6 359 -16 540 -21 319 -10 337 -11 505 -45 96 -19 200 -42 230
-51 101 -29 206 -92 336 -201 136 -114 260 -169 468 -207 74 -13 154 -33 179
-44 61 -27 121 -84 149 -140 21 -43 23 -60 22 -197 0 -172 -15 -229 -85 -341
-52 -82 -105 -127 -188 -159 -95 -36 -133 -65 -184 -142 -65 -99 -119 -236
-167 -422 -58 -231 -152 -461 -240 -591 -52 -77 -233 -248 -311 -293 -85 -49
-298 -133 -417 -163 -115 -29 -332 -47 -520 -42 -72 2 -132 0 -132 -3 0 -3 27
-46 59 -95 95 -143 219 -291 347 -413 213 -205 390 -299 674 -358 64 -13 134
-17 280 -18 194 0 195 0 240 27 49 29 88 67 145 143 l38 50 -7 -64 c-4 -35
-21 -116 -38 -180 -16 -64 -34 -138 -39 -165 -4 -27 -25 -99 -46 -160 l-38
-111 -3 133 c-1 72 -7 132 -11 132 -12 0 -18 -26 -40 -195 -74 -537 -173 -964
-262 -1120 -24 -41 -45 -75 -48 -75 -13 0 9 220 28 285 25 83 24 75 7 75 -9 0
-16 12 -18 33 -3 32 -3 32 -22 -18 -10 -27 -30 -75 -44 -105 -23 -51 -25 -53
-32 -30 -6 19 -8 12 -9 -29 -1 -39 -12 -79 -45 -155 -24 -55 -59 -138 -76
-184 -18 -45 -35 -81 -37 -79 -2 2 10 64 27 137 17 73 29 135 27 136 -2 2 -45
-107 -96 -244 -85 -229 -137 -355 -126 -307 22 103 7 89 -20 -18 -45 -180 -54
-195 -55 -92 -1 91 -10 81 -31 -35 l-14 -75 -7 155 c-4 85 -6 202 -3 260 4 94
3 101 -8 67 -7 -21 -16 -35 -20 -31 -4 4 -7 -15 -7 -42 -1 -27 -17 -112 -36
-189 l-34 -140 5 165 4 165 -29 -193 c-31 -206 -62 -376 -84 -457 l-13 -50 -7
50 c-3 28 -20 123 -36 211 -33 177 -34 188 -21 180 13 -8 25 562 12 609 -12
46 -16 324 -5 402 7 53 -4 83 -30 83 -26 -1 -40 -22 -52 -82 l-12 -63 -1 48
c-1 70 -21 57 -22 -15 0 -53 -15 -126 -19 -93 0 6 -21 87 -45 180 l-45 170 5
-90 c3 -49 8 -112 10 -140 8 -77 -12 -22 -25 72 -5 43 -14 92 -19 108 -7 28
-8 27 -16 -25 -4 -30 -10 -48 -13 -40 -9 31 -84 215 -89 220 -3 3 -2 -31 2
-75 6 -72 5 -78 -8 -60 -8 11 -37 81 -64 155 -64 172 -64 172 -58 125 11 -79
33 -300 30 -303 -8 -9 -53 72 -86 157 -21 53 -41 94 -46 91 -4 -3 -23 32 -42
78 -19 45 -36 81 -37 79 -2 -2 0 -25 5 -51 5 -26 6 -44 2 -39 -62 73 -112 147
-122 183 -10 35 -14 40 -17 23 -2 -13 -6 -23 -10 -22 -4 0 -29 27 -57 59 -27
32 -51 57 -53 55 -2 -2 9 -27 24 -57 52 -103 96 -214 76 -193 -120 129 -141
161 -168 256 -14 52 -27 99 -29 104 -4 12 -8 -115 -5 -160 1 -27 -3 -23 -41
35 -50 77 -131 182 -136 176 -2 -2 8 -30 22 -62 14 -33 22 -54 18 -49 -5 6
-26 33 -48 60 -64 84 -63 86 -16 -34 12 -29 20 -55 18 -58 -3 -2 -19 18 -36
46 -17 27 -42 60 -54 73 -12 13 -53 63 -92 111 -38 47 -71 85 -72 83 -8 -8 31
-95 82 -182 30 -54 54 -99 52 -100 -10 -10 -73 69 -126 160 -80 135 -86 138
-32 14 11 -27 17 -48 13 -48 -5 0 -24 16 -43 36 -18 20 -47 45 -64 57 l-30 22
24 -33 23 -33 -53 28 c-34 17 -93 68 -158 133 -57 58 -99 96 -93 85 10 -21 23
-95 17 -95 -2 0 -22 28 -45 63 -47 69 -45 43 3 -42 l30 -53 -62 33 c-34 19
-84 55 -112 81 -44 42 -48 44 -43 21 6 -21 4 -24 -7 -18 -98 59 -97 59 -31 -3
64 -61 80 -86 37 -58 -42 28 -38 18 25 -54 85 -100 81 -102 -30 -17 -36 28
-84 69 -107 91 -24 22 -43 37 -43 32 0 -4 -37 25 -82 65 -61 55 -76 65 -58 39
l25 -35 -27 18 c-15 9 -30 17 -33 17 -3 0 22 -34 55 -76 33 -41 60 -81 60 -87
0 -7 3 -23 7 -37 l6 -25 -30 28 c-17 15 -40 50 -53 77 -13 27 -26 47 -30 45
-4 -3 -13 17 -21 43 -11 41 -14 44 -19 22 -5 -22 -8 -18 -19 25 -8 28 -18 54
-23 60 -9 10 -5 -78 7 -170 l7 -50 -22 33 c-12 17 -24 32 -26 32 -5 0 12 -42
35 -88 18 -35 61 -240 75 -353 l5 -47 -44 -11 c-24 -6 -76 -11 -114 -11 -66 0
-79 4 -188 58 -65 31 -120 58 -122 59 -2 2 16 24 40 50 61 66 113 154 143 245
29 85 32 103 15 92 -8 -5 -10 4 -7 30 2 20 3 36 1 36 -1 0 -9 -12 -18 -27
l-15 -28 7 29 6 30 -24 -23 c-13 -13 -40 -34 -60 -47 -21 -12 -62 -43 -93 -69
-55 -45 -68 -48 -43 -10 8 11 31 52 52 90 l39 70 -89 -80 -88 -80 33 65 c19
39 26 59 16 51 -9 -7 -16 -10 -16 -6 0 3 -28 -18 -62 -49 -34 -31 -63 -55 -65
-53 -1 2 8 32 22 67 29 74 27 88 -6 31 -12 -23 -24 -39 -26 -37 -3 2 2 27 11
55 8 29 12 49 7 47 -4 -3 -29 -42 -55 -87 -26 -44 -49 -79 -51 -77 -2 2 5 32
16 67 20 66 20 90 -2 49 -19 -37 -151 -238 -156 -238 -2 0 -1 5 3 11 4 7 8 26
10 43 2 17 7 64 12 104 4 40 5 69 2 65 -3 -5 -25 -54 -49 -110 -38 -90 -129
-263 -151 -287 -5 -4 16 47 45 115 60 142 77 194 41 129 -29 -52 -32 -50 -11
9 19 55 9 47 -50 -41 -56 -83 -71 -102 -61 -75 3 9 9 25 12 35 4 9 -23 -35
-60 -98 -77 -132 -106 -170 -47 -60 68 127 125 330 93 330 -4 0 -50 -78 -102
-174 -52 -96 -96 -174 -97 -172 -2 1 6 28 16 59 11 31 23 78 26 104 l6 48 -44
-81 c-57 -105 -158 -274 -163 -274 -3 0 5 19 17 43 12 23 23 58 24 77 1 19 5
51 9 70 6 29 1 23 -30 -33 -20 -37 -38 -66 -40 -64 -4 4 22 147 31 172 5 11
-4 2 -20 -20 -48 -70 -49 -71 -55 -44 -5 21 -9 17 -24 -28 -11 -33 -40 -78
-82 -127 -35 -42 -66 -76 -69 -76 -2 0 5 26 16 57 10 31 18 61 16 66 -1 4 -40
-48 -86 -117 -46 -69 -85 -126 -87 -126 -2 0 13 37 32 83 52 120 74 177 69
177 -2 0 -11 -12 -19 -27 -18 -32 -21 -17 -5 24 13 36 4 27 -65 -66 -31 -41
-56 -72 -56 -69 0 3 9 29 19 59 10 30 22 63 26 74 3 11 -28 -46 -70 -128 -42
-81 -81 -145 -86 -142 -5 4 -2 22 7 43 18 43 34 92 29 92 -1 0 -18 -24 -36
-52 -33 -52 -158 -218 -163 -218 -2 0 3 26 10 58 8 31 14 68 13 82 0 22 -2 20
-21 -15 -23 -44 -138 -189 -144 -182 -3 2 0 24 5 48 19 82 11 74 -54 -46 -36
-66 -65 -116 -65 -112 0 4 7 22 16 39 28 54 -3 20 -63 -70 -53 -80 -73 -105
-80 -98 -1 1 15 52 37 114 40 114 42 142 9 142 -25 0 -43 -30 -89 -145 -21
-55 -61 -147 -88 -205 l-50 -104 -7 155 c-14 298 -19 297 -38 -11 l-18 -285
-49 -145 c-60 -178 -76 -240 -90 -353 -10 -82 -4 -294 8 -282 3 2 11 53 19
112 13 106 51 274 72 323 9 20 10 15 6 -30 -3 -30 -8 -86 -11 -124 -2 -38 -9
-88 -14 -110 -6 -23 -12 -59 -14 -81 -2 -22 -7 -53 -10 -70 -3 -16 4 -3 16 30
l23 60 3 -107 c3 -107 -15 -212 -97 -563 l-19 -80 -3 190 -3 190 -6 -135 c-3
-74 -7 -115 -8 -90 -5 111 -15 184 -23 165 -4 -11 -8 -37 -8 -57 -1 -47 -21
-61 -22 -16 -1 31 -1 31 -8 8 -13 -39 -29 -120 -37 -180 l-7 -55 -13 90 c-8
50 -25 144 -39 210 -15 75 -28 178 -33 275 -9 169 -15 155 -28 -60 l-6 -105
-31 -15 c-31 -14 -32 -18 -37 -90 l-5 -75 -12 116 c-7 63 -13 139 -13 167 0
46 -3 54 -24 62 -21 8 -25 18 -32 77 -12 111 -22 44 -33 -231 -11 -245 -21
-335 -21 -180 0 43 -3 131 -7 194 l-7 115 -12 -75 c-11 -74 -11 -75 -14 -25
-2 43 -3 46 -9 20 -8 -35 -14 27 -32 335 -6 107 -14 206 -17 220 -6 23 -16
-84 -22 -235 l-3 -60 -8 75 c-14 124 -71 525 -75 529 -2 2 -4 -13 -5 -35 0
-38 -1 -37 -25 31 -14 39 -32 75 -40 81 -8 6 -14 18 -14 26 0 18 -59 200 -88
274 -11 27 -24 72 -28 100 -6 40 -9 44 -14 24 -6 -24 -7 -23 -22 16 -9 22 -20
58 -24 80 l-8 39 -7 -34 c-4 -19 -3 -45 2 -58 5 -14 9 -34 9 -46 0 -22 -1 -22
-20 3 -34 43 -59 126 -68 222 -5 51 -10 74 -11 51 0 -23 -4 -44 -9 -47 -9 -5
-131 267 -166 369 -27 81 -132 338 -152 375 l-14 25 5 -25 c2 -14 12 -63 20
-108 9 -46 15 -86 12 -88 -2 -2 -16 18 -30 44 l-27 49 1 494 c1 471 -3 583
-21 594 -5 3 -23 -20 -40 -50 -17 -30 -36 -55 -41 -55 -11 0 0 23 49 100 34
54 34 55 28 135 l-7 82 29 -5 c49 -7 96 11 111 44 8 16 18 37 23 46 4 10 8 86
9 170 l1 153 23 -115 c29 -145 54 -210 114 -302 82 -125 126 -173 233 -254
110 -83 211 -135 296 -153 78 -16 440 -14 574 4 201 26 329 68 561 181 l128
62 -68 7 c-290 28 -461 87 -703 241 -141 90 -204 144 -323 282 -79 91 -276
354 -324 432 -68 111 -179 458 -194 604 -14 145 -28 236 -39 257 -6 10 -47 36
-93 57 -62 29 -94 52 -134 95 -92 102 -145 247 -146 402 -1 107 13 163 54 209
48 55 93 68 269 73 105 3 169 9 199 20 31 11 80 51 172 138 203 194 238 208
584 232 479 33 850 39 1145 18z m-2573 -2953 c8 -5 9 -21 3 -52 -5 -25 -12
-86 -16 -136 l-7 -91 -56 -33 c-80 -48 -137 -104 -193 -189 -67 -103 -98 -206
-97 -324 0 -51 4 -101 9 -112 7 -16 9 -14 9 15 3 108 53 244 132 362 43 64
171 198 189 198 6 0 10 -44 10 -114 0 -130 12 -105 -122 -258 -37 -43 -83
-101 -102 -130 -43 -65 -109 -220 -132 -311 -9 -38 -20 -65 -24 -60 -4 4 -16
42 -26 83 -16 64 -19 114 -19 330 0 235 2 262 23 340 43 157 112 277 228 393
82 82 151 115 191 89z m8688 -301 c175 -80 345 -395 409 -761 50 -279 33 -406
-89 -675 -40 -88 -64 -192 -81 -350 -16 -154 -53 -304 -114 -477 -23 -62 -47
-135 -54 -161 -20 -71 -30 -76 -60 -30 -30 45 -106 106 -162 129 -83 35 -209
-12 -280 -105 -47 -61 -48 -53 38 -238 10 -23 21 -56 24 -75 5 -32 3 -35 -112
-118 -65 -47 -127 -95 -138 -106 -51 -52 -47 16 20 291 19 77 42 194 50 260 9
66 29 167 44 225 26 97 39 180 55 350 7 73 39 147 68 156 95 30 237 -129 237
-266 0 -49 6 -68 45 -136 25 -43 45 -84 45 -91 0 -6 4 -15 10 -18 6 -3 9 9 7
32 -2 34 2 39 47 69 76 51 105 84 148 168 52 103 70 192 72 346 1 116 -10 247
-20 237 -2 -2 -13 -66 -23 -143 -26 -184 -53 -304 -89 -398 -34 -87 -60 -129
-107 -168 l-32 -27 -6 86 c-8 107 -39 176 -112 249 -69 70 -126 98 -182 91
-24 -2 -52 -12 -63 -22 -18 -16 -19 -16 -24 6 -3 13 -7 107 -9 209 -5 170 -3
190 16 248 12 35 25 63 29 63 19 -3 182 -189 199 -225 17 -39 49 -239 49 -307
0 -17 4 -28 9 -25 4 3 14 67 20 143 18 208 -3 266 -149 408 -34 33 -70 76 -80
95 -18 35 -18 37 6 119 26 89 63 263 65 303 1 20 2 19 9 -7 7 -28 8 -26 9 15
l1 45 20 -31 c22 -33 60 -171 60 -214 0 -15 -10 -36 -25 -50 -31 -30 -26 -36
14 -16 41 22 55 74 42 155 -11 71 -32 114 -76 161 -37 39 -47 84 -32 141 14
56 47 81 112 87 71 6 103 -8 160 -69 60 -64 74 -98 140 -330 30 -106 57 -194
60 -197 3 -3 3 14 0 39 -3 24 -10 100 -15 169 -20 227 -50 323 -130 413 -61
69 -109 91 -196 89 -40 0 -88 -8 -109 -16 l-37 -16 4 105 c4 112 17 146 69
172 37 19 147 16 194 -6z m-8730 -890 c-65 -111 -79 -162 -79 -286 0 -114 19
-193 59 -247 l17 -23 -6 25 c-24 91 -28 154 -17 252 12 112 48 251 63 242 5
-3 8 -31 7 -62 -1 -31 4 -118 11 -192 l13 -135 -31 -150 c-17 -82 -36 -179
-42 -215 -6 -36 -25 -123 -42 -195 -24 -99 -33 -124 -38 -105 l-7 25 -6 -25
c-3 -14 -11 -65 -17 -115 -18 -147 -14 -141 -57 -95 -42 47 -56 46 -22 -1 13
-18 18 -29 11 -25 -6 4 -33 36 -58 72 -56 78 -95 185 -102 278 -4 61 12 278
24 315 3 8 18 -8 38 -41 34 -57 106 -155 106 -145 0 3 -15 40 -34 81 -76 166
-91 222 -90 336 0 79 5 119 21 163 20 57 20 57 0 40 -19 -17 -19 -17 -14 2 3
11 25 88 48 170 71 257 91 303 213 488 l51 78 8 -224 9 -223 -37 -63z m3228
-232 c-32 -61 -70 -125 -85 -142 -16 -18 9 32 53 111 45 78 84 142 86 142 3 0
-22 -50 -54 -111z m1391 -26 l26 -48 -30 35 c-26 31 -39 60 -26 60 2 0 16 -21
30 -47z m267 -41 c-11 -4 -70 57 -71 73 0 5 18 -9 40 -30 23 -22 36 -41 31
-43z m-4672 -80 c23 -109 27 -155 10 -113 -8 21 -50 236 -48 250 1 17 20 -47
38 -137z m5025 63 c17 -21 25 -35 17 -31 -18 11 -85 85 -90 100 -6 17 37 -24
73 -69z m192 13 l29 -33 -32 29 c-31 28 -38 36 -30 36 2 0 16 -15 33 -32z
m2748 -475 c-8 -100 -25 -247 -32 -273 -6 -25 -6 -25 -13 5 -14 64 -9 141 18
232 15 51 28 93 29 93 1 0 0 -26 -2 -57z m-5345 -25 c-78 -89 -176 -188 -290
-293 -86 -81 -85 -83 5 -7 27 23 52 39 57 36 5 -3 42 18 83 45 l75 51 -54 -72
c-30 -40 -66 -102 -80 -138 -15 -36 -40 -95 -57 -132 l-30 -67 -112 40 c-61
22 -131 44 -155 47 l-44 7 94 76 c52 42 144 123 204 180 61 57 101 92 89 79
-51 -60 -31 -48 62 35 105 96 207 184 213 185 1 0 -26 -33 -60 -72z m-2630
-69 c10 -121 3 -292 -10 -234 -7 30 -11 379 -4 360 2 -5 8 -62 14 -126z m5880
-207 c30 -45 56 -81 58 -79 2 2 -8 28 -21 58 -14 29 -24 55 -22 56 12 12 44
-27 141 -168 61 -88 113 -163 117 -165 4 -3 -22 57 -58 133 -36 76 -63 136
-61 133 2 -3 50 -60 106 -127 56 -68 104 -123 107 -123 5 0 -40 83 -59 107 -5
7 -7 18 -5 24 7 22 101 -96 135 -170 19 -41 43 -87 54 -103 l20 -28 -88 0
c-48 0 -117 -7 -153 -16 -78 -18 -122 -12 -149 22 -11 14 -38 80 -61 147 -22
67 -58 156 -80 197 l-39 75 39 -45 c22 -25 40 -42 40 -38 0 3 -22 42 -48 85
-27 43 -59 96 -72 118 l-24 40 34 -26 c19 -14 59 -62 89 -107z m-3399 77 c-25
-22 -54 -45 -65 -51 -11 -6 5 12 35 40 30 28 60 51 65 51 6 0 -10 -18 -35 -40z
m-523 -211 c-3 -7 -5 -2 -5 12 0 14 2 19 5 13 2 -7 2 -19 0 -25z m63 -32 c0
-2 -8 -10 -17 -17 -16 -13 -17 -12 -4 4 13 16 21 21 21 13z m-5 -36 c-3 -5
-12 -10 -18 -10 -7 0 -6 4 3 10 19 12 23 12 15 0z m-148 -22 c-3 -8 -6 -5 -6
6 -1 11 2 17 5 13 3 -3 4 -12 1 -19z m4557 -151 c3 -16 6 -41 6 -56 -1 -25 -1
-25 -15 7 -8 18 -18 48 -24 67 -8 31 -8 33 9 23 10 -7 21 -25 24 -41z m-1803
-16 c166 -11 393 -36 519 -58 47 -8 150 -21 230 -28 189 -18 281 -39 311 -71
26 -27 108 -56 217 -74 39 -6 72 -16 72 -22 0 -10 -239 -252 -461 -465 -122
-117 -147 -136 -230 -177 -149 -71 -183 -78 -439 -83 -197 -4 -254 -2 -455 21
-356 40 -522 54 -760 66 -413 21 -564 59 -745 193 -91 68 -296 244 -341 295
-35 40 -189 263 -189 275 0 2 93 7 208 10 331 11 475 28 747 91 61 14 142 30
180 35 81 12 915 5 1136 -8z m-2462 -121 c112 -10 110 -8 178 -145 89 -176
168 -270 380 -452 130 -111 220 -165 345 -207 117 -40 232 -55 525 -71 150 -9
411 -31 580 -50 170 -19 353 -40 407 -46 58 -7 188 -9 310 -6 245 5 311 18
463 92 75 37 108 61 176 128 119 117 402 441 445 511 75 118 56 110 243 111
129 0 172 4 200 17 l37 16 8 -82 c4 -44 9 -70 12 -56 9 59 19 33 25 -66 8
-121 8 -185 0 -166 -2 6 -8 12 -12 12 -4 0 3 -57 15 -127 13 -71 23 -157 22
-193 l0 -65 -17 95 c-17 96 -31 104 -31 16 0 -79 -40 -371 -75 -541 -54 -264
-108 -468 -164 -615 -54 -142 -154 -353 -147 -310 2 14 7 41 10 60 l7 35 -21
-35 c-11 -19 -18 -26 -16 -15 23 88 46 193 46 205 0 8 -34 -47 -76 -122 -41
-76 -76 -138 -78 -138 -2 0 3 32 11 72 14 75 10 102 -7 52 -6 -16 -19 -47 -30
-69 -17 -35 -18 -36 -13 -10 9 46 -9 20 -42 -60 -76 -187 -165 -375 -199 -423
-40 -54 -55 -68 -35 -29 7 12 14 33 15 47 4 36 97 296 127 357 34 65 35 84 2
23 -28 -52 -30 -47 -10 35 8 32 12 61 10 63 -2 3 -19 -29 -37 -69 -18 -41 -58
-126 -90 -189 -52 -103 -58 -110 -53 -72 4 31 2 41 -6 36 -8 -4 -9 1 -4 17 13
43 -10 9 -100 -146 -48 -82 -92 -154 -97 -160 -8 -9 14 57 92 265 17 46 28 81
24 78 -3 -4 -31 -56 -60 -115 -30 -59 -52 -99 -49 -88 25 109 75 382 73 397
-2 12 -26 -34 -57 -108 -65 -154 -130 -293 -131 -279 0 32 34 124 84 223 31
61 54 112 52 112 -2 0 -29 -40 -60 -90 -32 -49 -61 -90 -64 -90 -4 0 -20 -25
-36 -56 -19 -35 -65 -92 -123 -149 l-92 -92 5 87 c4 59 2 90 -5 94 -7 4 -11
-1 -11 -13 0 -32 -58 -201 -86 -251 -14 -25 -23 -37 -20 -27 27 88 38 138 56
241 11 66 18 121 16 123 -2 2 -25 -48 -52 -111 -26 -64 -49 -114 -51 -112 -2
1 3 40 12 87 8 46 12 85 10 87 -2 2 -22 -31 -44 -74 -22 -44 -51 -97 -65 -119
l-25 -40 -1 125 c-1 69 -5 145 -9 170 -6 43 -7 40 -25 -65 -10 -60 -21 -116
-26 -124 -4 -7 -10 69 -14 170 -10 268 -27 593 -30 597 -2 1 -7 -50 -11 -115
-22 -360 -31 -433 -76 -587 l-44 -149 -3 69 c-2 38 4 110 12 159 8 50 18 128
20 175 l6 85 -34 -150 c-19 -82 -44 -172 -55 -200 l-20 -50 -1 225 c-3 358 -9
369 -49 90 -36 -257 -78 -496 -89 -517 -7 -12 -7 77 2 285 2 53 13 135 24 181
23 93 17 95 -19 8 -17 -42 -25 -54 -29 -41 -9 24 -16 9 -25 -51 -8 -61 -63
-205 -77 -205 -6 0 -7 11 -3 28 25 97 80 719 62 702 -7 -7 -90 -329 -122 -472
-14 -65 -35 -143 -47 -175 l-22 -57 -9 34 c-5 19 -12 94 -16 165 l-6 130 -14
-58 c-8 -32 -17 -53 -21 -46 -7 10 -29 -110 -31 -164 -1 -21 -1 -21 -10 3 -5
14 -13 79 -17 145 l-8 120 -24 -99 c-24 -97 -25 -98 -33 -60 -21 102 -24 104
-33 24 l-8 -75 -7 50 c-4 28 -8 74 -8 104 -1 77 -14 55 -31 -57 l-16 -97 -8
85 c-6 60 -11 78 -16 60 -6 -24 -7 -23 -14 10 -4 19 -12 59 -18 88 -6 28 -13
50 -16 48 -2 -3 -7 -29 -11 -58 -7 -52 -7 -51 -15 44 -4 54 -11 100 -16 103
-4 3 -11 -46 -16 -108 l-8 -112 -11 65 -10 65 -27 -80 c-14 -44 -34 -112 -44
-152 -10 -39 -22 -69 -26 -67 -4 3 -8 44 -8 92 0 117 -5 133 -36 122 -23 -9
-24 -8 -24 37 0 80 -12 39 -26 -94 -15 -137 -22 -169 -23 -113 -2 67 -40 573
-44 576 -2 2 -9 -76 -16 -174 -7 -97 -14 -178 -15 -179 -1 -1 -10 91 -20 205
-18 203 -25 250 -27 181 -1 -19 -4 -83 -8 -144 l-7 -110 -9 85 -9 85 -7 -50
c-4 -27 -11 -99 -15 -160 l-7 -110 -21 80 -21 80 -3 -55 -4 -55 -13 30 c-13
28 -13 25 -14 -54 -1 -46 -4 -81 -7 -78 -7 6 -17 124 -31 362 -7 119 -7 120
-14 53 -4 -37 -31 -159 -60 -272 -49 -189 -54 -203 -65 -178 -11 24 -12 15
-13 -67 -1 -152 -21 -98 -44 120 -12 106 -22 188 -23 183 -1 -5 -6 -54 -10
-109 l-7 -100 -18 55 -19 55 4 -153 c1 -84 1 -151 -1 -148 -5 5 -53 540 -53
595 0 68 -13 40 -21 -47 -4 -42 -15 -122 -25 -176 -16 -93 -18 -97 -29 -70
-10 25 -11 19 -7 -48 6 -95 -9 -104 -34 -20 -26 89 -28 91 -34 27 l-5 -60 -37
135 c-21 74 -47 180 -59 235 -12 55 -27 105 -32 110 -6 6 -7 -1 -3 -20 3 -16
8 -115 11 -220 2 -104 9 -217 15 -250 12 -72 12 -88 0 -57 -5 12 -30 132 -55
265 -25 133 -48 253 -51 266 -11 53 -11 8 2 -129 7 -80 13 -167 14 -194 l0
-48 -54 70 c-55 70 -55 71 -69 179 l-15 108 -2 -95 c-2 -105 -9 -96 -32 40
l-13 75 -5 -110 c-3 -60 -8 -101 -11 -90 -4 11 -7 -18 -8 -64 -2 -129 -17 -87
-36 94 -8 88 -19 183 -23 210 -7 46 -8 48 -14 20 -4 -16 -12 -73 -18 -125 -21
-168 -28 -177 -30 -40 -3 113 -4 119 -10 60 -4 -36 -8 -103 -9 -149 0 -46 -3
-82 -5 -80 -8 8 -56 380 -56 434 0 54 36 353 47 390 3 11 2 17 -2 13 -4 -4
-13 -33 -19 -65 -12 -55 -13 -47 -19 142 -6 176 -17 324 -46 610 -5 44 -9 69
-10 55 -1 -14 -10 -135 -21 -270 -11 -135 -20 -267 -20 -295 0 -36 -3 -46 -10
-35 -5 8 -10 43 -10 76 0 62 -36 360 -46 375 -2 4 10 90 27 191 46 273 59 373
59 475 l0 92 46 -21 c29 -12 84 -23 143 -28z m6173 40 c42 -12 74 -49 136
-157 35 -60 42 -80 42 -125 0 -99 -61 -268 -127 -355 -71 -93 -290 -153 -388
-106 -38 18 -42 33 -25 93 7 23 24 45 48 62 35 24 45 26 95 21 56 -6 58 -5 92
31 44 47 51 87 37 209 -12 103 -37 165 -88 227 l-28 32 42 39 c35 33 48 39 84
39 24 0 60 -5 80 -10z m-1775 -197 c-3 -10 -5 -4 -5 12 0 17 2 24 5 18 2 -7 2
-21 0 -30z m1 -288 c0 -44 -3 -93 -7 -110 l-7 -30 -17 32 c-16 30 -16 41 0
180 l18 148 6 -70 c4 -38 7 -106 7 -150z m-5084 46 c-3 -33 -10 -58 -15 -55
-12 7 -11 39 3 85 16 54 21 42 12 -30z m130 -130 c-4 -34 -10 -57 -14 -50 -5
6 -11 -37 -15 -96 -8 -121 -23 -191 -24 -119 -1 23 -4 76 -8 119 -5 63 -4 77
7 70 10 -6 11 -1 6 21 -4 17 -3 24 2 16 6 -9 15 7 27 48 10 33 20 59 22 57 2
-2 0 -32 -3 -66z m4971 -79 c-5 -28 -9 -33 -16 -20 -5 10 -4 28 3 49 14 41 23
22 13 -29z m-6825 -310 l-19 -37 0 115 1 115 19 -78 c19 -77 19 -79 -1 -115z
m6915 -143 l-15 -34 2 53 c2 28 -1 53 -5 55 -5 1 -10 41 -10 87 -1 67 3 94 18
125 l20 40 3 -146 c2 -114 -1 -153 -13 -180z m-4998 119 c-2 -13 -4 -3 -4 22
0 25 2 35 4 23 2 -13 2 -33 0 -45z m4860 5 c-3 -10 -5 -4 -5 12 0 17 2 24 5
18 2 -7 2 -21 0 -30z m-6540 -160 c-3 -10 -5 -2 -5 17 0 19 2 27 5 18 2 -10 2
-26 0 -35z m6551 -133 c-3 -104 -8 -134 -27 -178 -13 -29 -26 -51 -28 -48 -2
2 3 44 11 92 8 49 17 118 21 154 3 36 9 88 12 115 11 76 16 15 11 -135z m132
-53 c-6 -71 -18 -146 -26 -166 l-14 -36 5 40 c3 22 7 78 10 125 7 97 27 214
33 186 2 -11 -1 -78 -8 -149z m-5433 21 c-2 -13 -4 -3 -4 22 0 25 2 35 4 23 2
-13 2 -33 0 -45z m-1152 -147 c-13 -14 -15 -7 -14 64 l1 80 14 -65 c13 -56 12
-66 -1 -79z m1306 -244 c-13 -13 -15 15 -3 53 7 24 7 23 10 -9 2 -18 -1 -38
-7 -44z m426 -109 c-3 -7 -5 -2 -5 12 0 14 2 19 5 13 2 -7 2 -19 0 -25z m5583
-48 c-43 -86 -64 -111 -27 -32 34 70 57 112 62 112 3 0 -13 -36 -35 -80z
m-6373 -47 c-3 -10 -5 -2 -5 17 0 19 2 27 5 18 2 -10 2 -26 0 -35z m6293 -103
c-17 -33 -33 -60 -35 -60 -3 0 8 27 25 60 17 33 33 60 35 60 3 0 -8 -27 -25
-60z m-6893 -2 c-3 -8 -6 -5 -6 6 -1 11 2 17 5 13 3 -3 4 -12 1 -19z m10 -50
c-3 -8 -6 -5 -6 6 -1 11 2 17 5 13 3 -3 4 -12 1 -19z m6823 -58 c-6 -11 -13
-20 -16 -20 -2 0 0 9 6 20 6 11 13 20 16 20 2 0 0 -9 -6 -20z m-6781 -75 c1
-17 -1 -17 -9 -5 -5 8 -9 26 -9 40 0 23 1 23 9 5 5 -11 9 -29 9 -40z m168 -82
c-2 -27 -3 -5 -3 47 0 52 1 74 3 48 2 -27 2 -69 0 -95z m1620 105 c-3 -8 -6
-5 -6 6 -1 11 2 17 5 13 3 -3 4 -12 1 -19z m150 -315 c4 -43 2 -63 -5 -63 -6
0 -14 15 -17 33 -15 92 -35 223 -34 232 3 27 51 -148 56 -202z m1070 40 c-3
-10 -5 -2 -5 17 0 19 2 27 5 18 2 -10 2 -26 0 -35z m-2687 -145 c0 -32 -4 -58
-9 -58 -11 0 -21 61 -20 125 l1 50 13 -30 c8 -16 14 -56 15 -87z m55 -123 c15
-58 29 -104 31 -102 2 2 -3 41 -11 88 -21 120 -18 133 15 61 l30 -64 -21 -90
c-25 -115 -21 -131 11 -36 18 54 25 67 28 48 13 -101 75 -439 82 -455 l10 -20
-4 20 c-5 20 -31 245 -40 345 l-5 55 16 -40 c74 -190 167 -423 174 -435 16
-27 0 88 -31 218 -41 178 -82 424 -72 434 20 20 65 -91 81 -202 7 -41 25 -131
41 -200 20 -86 34 -182 44 -305 7 -99 14 -155 15 -124 0 31 4 84 8 118 6 60 7
62 18 34 7 -15 15 -46 19 -68 4 -22 19 -103 34 -180 l27 -140 5 100 5 100 24
-42 c14 -24 26 -42 27 -40 2 2 -8 39 -21 82 -14 44 -25 85 -25 90 1 26 65
-138 76 -195 9 -50 12 -57 13 -30 l2 35 14 -25 c8 -14 28 -85 45 -158 18 -73
34 -132 36 -129 2 2 -3 41 -11 88 -18 99 -18 102 -5 94 5 -3 1 19 -9 48 -18
51 -53 276 -66 417 -5 60 -2 52 40 -88 24 -85 48 -159 52 -165 4 -7 13 -106
18 -222 l11 -210 8 155 c6 103 11 148 17 135 5 -11 20 -45 34 -75 24 -51 25
-52 22 -20 -2 19 0 46 4 60 5 15 7 -22 6 -92 -1 -64 0 -115 1 -113 2 2 10 64
18 137 21 202 26 239 32 233 4 -3 6 -23 5 -43 -2 -31 -1 -33 6 -12 7 23 8 22
15 -15 7 -36 9 -38 17 -17 5 12 10 22 13 22 12 0 36 -68 42 -123 6 -47 9 -56
14 -37 7 23 8 22 15 -12 4 -21 13 -38 21 -38 26 0 29 -92 8 -210 -4 -22 -3
-22 4 -5 5 11 15 53 22 93 7 39 15 70 18 67 18 -17 52 -128 53 -170 1 -27 5
-61 9 -75 7 -22 8 -21 9 13 1 20 4 37 9 36 4 0 36 -61 71 -135 36 -74 68 -134
72 -134 4 0 1 28 -7 63 -9 34 -18 76 -20 92 l-5 30 22 -30 c42 -56 136 -143
178 -165 90 -46 98 -43 38 11 -62 55 -117 130 -162 219 l-27 55 47 -45 c26
-25 61 -63 77 -85 22 -29 28 -33 23 -16 -7 22 -5 22 37 -10 24 -19 70 -64 103
-101 33 -36 63 -67 68 -67 4 -1 -4 22 -19 50 l-26 52 79 -43 c108 -60 176
-111 214 -165 18 -25 34 -43 37 -41 2 3 -6 19 -18 35 -12 17 -17 31 -12 31 5
0 47 -29 93 -65 95 -74 118 -84 56 -25 l-42 40 48 -16 c63 -21 69 -13 12 20
-24 15 -73 50 -107 79 l-63 52 45 7 c52 9 89 -9 91 -45 1 -16 3 -17 6 -5 7 26
89 -36 210 -159 l101 -104 -36 -23 c-21 -12 -46 -28 -57 -34 -37 -21 -3 -12
56 14 l59 27 58 -45 c83 -65 90 -67 51 -14 -66 90 -63 83 -38 96 16 9 28 9 48
1 23 -10 24 -10 8 3 -20 15 -32 8 168 101 l71 33 -24 -70 c-13 -39 -21 -72
-19 -74 2 -3 24 25 48 62 57 89 130 160 214 212 39 23 80 50 93 58 12 9 22 14
22 12 0 -3 -47 -42 -105 -88 -58 -45 -105 -84 -105 -86 0 -5 131 79 323 208
249 166 112 33 -223 -217 -58 -43 -109 -83 -115 -88 -11 -12 -14 -14 245 151
107 69 222 139 255 157 113 60 240 144 320 211 44 37 73 60 65 50 -27 -33
-202 -176 -294 -238 -50 -34 -164 -106 -255 -160 -91 -54 -162 -98 -158 -98 4
0 98 45 208 101 l201 100 -101 -100 c-73 -73 -101 -108 -101 -125 0 -14 5 -28
11 -31 6 -4 -6 -18 -28 -32 -52 -35 -67 -51 -21 -24 20 12 52 29 70 38 18 9
55 31 82 49 27 18 54 30 61 28 7 -3 16 0 21 7 5 8 3 10 -6 4 -8 -5 -11 -4 -6
3 4 6 14 8 23 5 10 -4 14 -2 10 4 -4 6 1 10 11 9 9 0 16 5 14 12 -1 8 2 11 8
7 5 -3 55 22 110 55 57 36 104 58 111 54 7 -4 9 -3 6 3 -4 6 8 20 26 31 19 11
46 27 60 37 15 9 27 15 27 12 0 -3 -22 -19 -50 -37 -27 -18 -50 -34 -50 -37 0
-2 3 -2 8 0 245 148 346 207 355 207 7 0 53 26 103 58 79 51 134 79 134 66 0
-2 -52 -43 -115 -90 -63 -48 -115 -88 -115 -90 0 -4 20 3 95 35 l50 21 -29
-25 c-15 -15 -27 -28 -25 -30 7 -6 275 161 406 253 71 49 151 102 178 117 47
26 44 22 -45 -61 -52 -48 -129 -122 -170 -162 -66 -65 -70 -72 -35 -52 39 23
39 22 -19 -38 -43 -44 -89 -77 -172 -122 -63 -34 -114 -63 -114 -66 0 -2 40
16 90 41 49 25 92 45 95 45 3 0 15 6 28 13 12 8 92 51 177 97 249 132 411 246
577 403 140 133 310 354 408 531 22 39 89 133 150 210 60 78 132 170 159 206
27 36 52 68 55 72 10 12 2 -1421 -9 -1522 -15 -154 -58 -251 -191 -431 -78
-107 -297 -325 -414 -413 -86 -65 -314 -206 -476 -295 -137 -75 -273 -117
-499 -156 -126 -22 -171 -26 -118 -10 50 16 389 185 455 227 110 71 370 267
458 345 44 39 110 106 145 149 67 82 61 83 -25 4 -124 -115 -529 -378 -745
-486 -436 -217 -722 -325 -924 -350 -124 -15 -154 -23 -95 -25 l34 -1 -39 -9
c-120 -28 -965 -148 -1096 -155 -239 -13 -536 18 -859 92 -368 83 -447 109
-861 284 -107 45 -329 127 -494 181 -309 103 -437 155 -495 204 l-34 29 6 79
c4 47 30 165 67 300 109 405 161 677 181 957 15 208 4 645 -25 1045 l-5 60 14
-45 13 -45 0 35 c1 46 12 100 22 100 4 0 19 -47 35 -105z m5635 -239 c0 -2 -8
-10 -17 -17 -16 -13 -17 -12 -4 4 13 16 21 21 21 13z m-40 -50 c0 -2 -8 -10
-17 -17 -16 -13 -17 -12 -4 4 13 16 21 21 21 13z m-11 -98 c-19 -37 -127 -178
-136 -178 -2 0 7 21 20 46 22 44 129 184 135 179 2 -2 -7 -23 -19 -47z m-4762
-485 c-2 -16 -4 -5 -4 22 0 28 2 40 4 28 2 -13 2 -35 0 -50z m4452 -15 c19 -6
-180 -212 -304 -316 -119 -100 -448 -313 -461 -299 -8 8 152 142 234 196 138
91 279 209 390 326 56 59 102 113 102 119 0 6 6 4 13 -5 7 -9 18 -18 26 -21z
m-4471 -118 c0 -22 -1 -22 -8 5 -4 17 -8 39 -8 50 0 16 2 15 8 -5 4 -14 8 -36
8 -50z m3882 -83 c0 -2 -10 -12 -22 -23 l-23 -19 19 23 c18 21 26 27 26 19z
m-50 -41 c0 -2 -8 -10 -17 -17 -16 -13 -17 -12 -4 4 13 16 21 21 21 13z m-40
-30 c0 -2 -8 -10 -17 -17 -16 -13 -17 -12 -4 4 13 16 21 21 21 13z m-40 -30
c0 -2 -8 -10 -17 -17 -16 -13 -17 -12 -4 4 13 16 21 21 21 13z m-40 -30 c0 -2
-8 -10 -17 -17 -16 -13 -17 -12 -4 4 13 16 21 21 21 13z m-800 -339 c0 -2 -12
-14 -27 -28 l-28 -24 24 28 c23 25 31 32 31 24z m-870 -21 c0 -2 -9 -6 -20 -9
-11 -3 -18 -1 -14 4 5 9 34 13 34 5z m-891 -92 c2 -2 -9 -8 -25 -14 -26 -10
-31 -8 -83 46 l-56 56 80 -43 c44 -23 82 -44 84 -45z m1691 53 c0 -2 -10 -12
-22 -23 l-23 -19 19 23 c18 21 26 27 26 19z m-820 -92 c0 -8 -234 -165 -247
-165 -8 0 -28 7 -46 16 -33 18 -138 96 -134 101 2 1 70 7 153 13 116 8 240 26
272 39 1 1 2 -1 2 -4z m-559 -32 c13 -16 12 -17 -3 -4 -10 7 -18 15 -18 17 0
8 8 3 21 -13z m63 -48 c38 -29 177 -95 200 -95 27 0 18 -16 -23 -43 l-38 -25
-40 26 c-36 24 -153 144 -153 157 0 12 24 3 54 -20z m116 -177 c0 -16 -30 -8
-40 12 -10 18 -9 19 15 8 14 -6 25 -15 25 -20z"/>
<path d="M7775 12533 c-163 -10 -384 -54 -474 -94 -77 -34 -243 -150 -305
-214 -146 -149 -257 -385 -276 -585 -5 -52 -15 -147 -21 -210 -13 -131 -2
-259 30 -352 40 -116 168 -351 242 -442 39 -50 72 -96 73 -104 6 -36 212 -222
355 -321 224 -154 706 -229 940 -147 230 81 455 263 653 530 144 193 225 364
259 546 7 36 13 133 13 215 l1 150 -33 70 c-31 63 -51 113 -113 284 -44 118
-170 265 -348 404 -133 105 -174 131 -268 169 -128 51 -250 77 -416 87 -206
14 -265 16 -312 14z m855 -2157 c0 -2 -8 -10 -17 -17 -16 -13 -17 -12 -4 4 13
16 21 21 21 13z"/>
<path d="M11910 12324 c-295 -40 -549 -150 -689 -299 -104 -112 -176 -232
-228 -382 -24 -70 -27 -94 -29 -230 -1 -83 -5 -160 -8 -170 -3 -11 1 -66 9
-123 8 -58 15 -130 15 -162 0 -64 42 -202 90 -300 106 -213 301 -430 556 -618
171 -127 223 -157 337 -196 161 -55 431 -92 597 -80 178 12 361 62 405 111 21
23 140 111 180 133 45 24 182 204 254 333 51 92 111 290 122 404 6 62 17 114
29 136 23 46 38 150 49 349 22 400 -82 656 -334 822 -226 149 -560 253 -890
278 -183 13 -335 11 -465 -6z m-260 -2150 c104 -86 129 -117 50 -63 -35 24
-96 75 -135 113 -79 77 -43 56 85 -50z"/>
<path d="M9857 11839 c-62 -9 -153 -52 -171 -81 -11 -19 3 -49 80 -168 86
-133 81 -206 -28 -418 -38 -74 -85 -160 -105 -191 -76 -118 -182 -322 -165
-317 9 3 89 19 177 36 326 62 568 65 779 10 65 -17 120 -29 122 -27 2 2 -9 33
-25 68 -16 35 -43 105 -60 155 -17 51 -43 112 -56 137 -14 25 -40 83 -57 129
-29 75 -32 94 -33 198 0 108 2 119 31 181 20 41 60 97 108 150 42 46 75 88 73
94 -5 15 -75 32 -186 44 -116 13 -398 13 -484 0z"/>
<path d="M8540 9870 c-24 -24 -62 -107 -91 -199 -29 -93 -38 -286 -16 -361 41
-138 192 -257 396 -312 62 -17 107 -21 241 -21 172 -1 265 14 415 63 62 21 57
20 -95 -6 -103 -18 -291 -20 -380 -4 -151 26 -297 91 -385 172 -70 63 -88 109
-86 218 1 101 27 379 40 433 10 43 -6 50 -39 17z"/>
<path d="M11390 9795 c0 -3 14 -34 31 -68 70 -137 82 -183 83 -307 2 -254
-100 -448 -280 -532 -162 -76 -396 -39 -681 107 -73 37 -151 69 -182 75 -59
11 -196 11 -306 1 l-70 -7 45 -7 c25 -4 101 -11 170 -17 69 -5 142 -14 163
-20 21 -6 82 -41 135 -77 165 -113 293 -158 477 -170 118 -7 193 6 282 48 73
35 168 119 211 187 65 101 107 304 99 470 -4 87 -8 100 -51 188 -40 80 -53 97
-86 114 -22 11 -40 18 -40 15z"/>
<path d="M9240 9560 c-105 -10 -240 -54 -294 -95 -54 -41 -87 -102 -93 -173
-4 -49 -2 -61 18 -86 12 -16 41 -37 63 -47 70 -32 130 -25 315 36 91 30 190
59 219 65 114 21 161 69 165 168 2 58 -20 98 -69 118 -42 18 -212 25 -324 14z"/>
<path d="M10804 9506 c-90 -22 -212 -77 -256 -116 -24 -20 -72 -52 -108 -70
-62 -31 -194 -119 -188 -125 2 -2 55 10 118 26 63 15 127 29 141 29 56 0 131
-32 208 -91 101 -75 143 -91 256 -93 152 -2 192 37 182 178 -7 109 -30 168
-78 210 -70 60 -167 78 -275 52z"/>
<path d="M13517 7751 c-64 -158 -68 -171 -65 -235 l3 -68 68 233 c37 127 66
233 65 235 -2 1 -34 -73 -71 -165z"/>
<path d="M14318 9025 c28 -55 63 -145 80 -200 74 -241 104 -347 130 -445 l27
-105 3 74 c3 77 -29 272 -69 420 -29 107 -93 224 -162 296 l-58 60 49 -100z"/>
<path d="M13962 7940 c0 -14 2 -19 5 -12 2 6 2 18 0 25 -3 6 -5 1 -5 -13z"/>
<path d="M11535 4519 c-9 -17 -15 -33 -13 -35 3 -2 12 12 21 31 21 43 13 47
-8 4z"/>
<path d="M12654 4343 c-15 -21 -39 -53 -52 -70 -13 -18 -22 -33 -19 -33 8 0
109 131 104 136 -2 3 -17 -12 -33 -33z"/>
</g>
</svg>
